<?xml version="1.0" encoding="utf-8"?>
<!-- Generator: Adobe Illustrator 21.0.1, SVG Export Plug-In . SVG Version: 6.00 Build 0)  -->
<svg version="1.1" xmlns="http://www.w3.org/2000/svg" xmlns:xlink="http://www.w3.org/1999/xlink" x="0px" y="0px"
	 viewBox="0 0 44.6 48.6" style="enable-background:new 0 0 44.6 48.6;" xml:space="preserve">
<style type="text/css">
	.st0{fill:#FFFFFF;stroke:#E6E6E6;stroke-width:3;stroke-miterlimit:10;}
	.st1{fill:#E83360;}
</style>
<g id="Слой_1">
	<path class="st0" d="M39.4,38.3L26,46.1c-2.3,1.3-5.1,1.3-7.3,0L5.2,38.3C2.9,37,1.5,34.6,1.5,32V16.5c0-2.6,1.4-5,3.7-6.3
		l13.5-7.7c2.3-1.3,5.1-1.3,7.3,0l13.5,7.7c2.3,1.3,3.7,3.7,3.7,6.3V32C43.1,34.6,41.7,37,39.4,38.3z"/>
</g>
<g id="Слой_2">
	<path class="st1" d="M29.1,22.3c0-0.5-0.4-0.9-0.9-0.9h-12c-0.5,0-0.9,0.4-0.9,0.9c0,0.2,0.1,0.4,0.3,0.6l6,6
		c0.2,0.2,0.4,0.3,0.6,0.3c0.2,0,0.4-0.1,0.6-0.3l6-6C29.1,22.7,29.1,22.5,29.1,22.3z"/>
</g>
</svg>
