<svg xmlns="http://www.w3.org/2000/svg" viewBox="0 0 44.6 48.6">
    <style>
        .st0{fill:#fff;stroke:#e6e6e6;stroke-width:3;stroke-miterlimit:10}.st1{fill:#e83360}
    </style>
    <path class="st0" d="M39.4 38.3L26 46.1c-2.3 1.3-5.1 1.3-7.3 0L5.2 38.3C2.9 37 1.5 34.6 1.5 32V16.5c0-2.6 1.4-5 3.7-6.3l13.5-7.7c2.3-1.3 5.1-1.3 7.3 0l13.5 7.7c2.3 1.3 3.7 3.7 3.7 6.3V32c-.1 2.6-1.5 5-3.8 6.3z" id="Слой_1"/>
    <path class="st1" d="M29.1 22.3c0-.5-.4-.9-.9-.9h-12c-.5 0-.9.4-.9.9 0 .2.1.4.3.6l6 6c.2.2.4.3.6.3.2 0 .4-.1.6-.3l6-6c.3-.2.3-.4.3-.6z" id="Слой_2"/>
</svg>
